<?xml version="1.0" encoding="UTF-8" standalone="no"?>
<!-- Created with Inkscape (http://www.inkscape.org/) -->

<svg
   width="512"
   height="512"
   viewBox="0 0 512 512"
   version="1.1"
   id="svg5"
   inkscape:version="1.1.2 (0a00cf5339, 2022-02-04)"
   sodipodi:docname="RMS.svg"
   inkscape:export-filename="/home/arno/Images/logorms.png"
   inkscape:export-xdpi="96"
   inkscape:export-ydpi="96"
   xmlns:inkscape="http://www.inkscape.org/namespaces/inkscape"
   xmlns:sodipodi="http://sodipodi.sourceforge.net/DTD/sodipodi-0.dtd"
   xmlns="http://www.w3.org/2000/svg"
   xmlns:svg="http://www.w3.org/2000/svg">
  <sodipodi:namedview
     id="namedview7"
     pagecolor="#505050"
     bordercolor="#eeeeee"
     borderopacity="1"
     inkscape:pageshadow="0"
     inkscape:pageopacity="0"
     inkscape:pagecheckerboard="0"
     inkscape:document-units="px"
     showgrid="true"
     inkscape:zoom="2.2925728"
     inkscape:cx="254.73564"
     inkscape:cy="478.06552"
     inkscape:window-width="1920"
     inkscape:window-height="1012"
     inkscape:window-x="0"
     inkscape:window-y="40"
     inkscape:window-maximized="1"
     inkscape:current-layer="layer1">
    <inkscape:grid
       type="xygrid"
       id="grid90403" />
  </sodipodi:namedview>
  <defs
     id="defs2" />
  <g
     inkscape:label="Calque 1"
     inkscape:groupmode="layer"
     id="layer1"
     style="display:inline">
    <text
       xml:space="preserve"
       style="font-size:192px;line-height:1.25;font-family:Karumbi;-inkscape-font-specification:Karumbi"
       x="170.94586"
       y="220.93927"
       id="text11210"><tspan
         sodipodi:role="line"
         id="tspan11208"
         x="170.94586"
         y="220.93927" /></text>
    <g
       id="g222600">
      <g
         id="g221884"
         style="fill:none">
        <g
           id="g221220"
           style="fill:none">
          <g
             id="g220109"
             transform="matrix(0.99847797,7.5199943e-4,-0.00120318,0.99830032,0.19044708,0.49885474)"
             style="fill:none">
            <text
               xml:space="preserve"
               style="font-style:normal;font-variant:normal;font-weight:normal;font-stretch:normal;font-size:1096.53px;line-height:1.25;font-family:Gidugu;-inkscape-font-specification:Gidugu;fill:none;stroke-width:5.7111"
               x="-41.101337"
               y="552.70325"
               id="text22764"
               transform="matrix(1.0499882,2.4654504e-4,-2.2363208e-4,0.95239163,0,0)"><tspan
                 sodipodi:role="line"
                 id="tspan22762"
                 x="-41.101337"
                 y="552.70325"
                 style="font-style:normal;font-variant:normal;font-weight:normal;font-stretch:normal;font-family:Gidugu;-inkscape-font-specification:Gidugu;fill:none;stroke-width:5.7111">R</tspan></text>
            <text
               xml:space="preserve"
               style="font-style:normal;font-variant:normal;font-weight:normal;font-stretch:normal;font-size:259.043px;line-height:1.25;font-family:Gidugu;-inkscape-font-specification:Gidugu;fill:none;stroke-width:1.34918"
               x="119.35773"
               y="202.37724"
               id="text42404"
               transform="scale(0.90239792,1.1081586)"><tspan
                 sodipodi:role="line"
                 id="tspan42402"
                 x="119.35773"
                 y="202.37724"
                 style="font-style:normal;font-variant:normal;font-weight:normal;font-stretch:normal;font-family:Gidugu;-inkscape-font-specification:Gidugu;fill:none;stroke-width:1.34918">M</tspan></text>
            <text
               xml:space="preserve"
               style="font-style:normal;font-variant:normal;font-weight:normal;font-stretch:normal;font-size:268.249px;line-height:1.25;font-family:Gidugu;-inkscape-font-specification:Gidugu;fill:none;stroke-width:1.39713"
               x="215.02989"
               y="224.2468"
               id="text70486"
               transform="scale(1.0435308,0.9582851)"><tspan
                 sodipodi:role="line"
                 id="tspan70484"
                 x="215.02989"
                 y="224.2468"
                 style="font-style:normal;font-variant:normal;font-weight:normal;font-stretch:normal;font-family:Gidugu;-inkscape-font-specification:Gidugu;fill:none;stroke-width:1.39713">S</tspan></text>
          </g>
          <rect
             style="fill:none;fill-opacity:0.936902;stroke-width:3.62444;stroke-linecap:round;stroke-linejoin:round;stroke:#030000;stroke-opacity:1"
             id="rect220996"
             width="511.01944"
             height="510"
             x="0"
             y="0" />
        </g>
        <path
           style="fill:none;fill-opacity:0.936902;stroke:#030000;stroke-width:1.93388;stroke-linecap:round;stroke-linejoin:round;stroke-opacity:1"
           d="m 116.17864,475.19489 c 0.22512,-17.86787 0.40931,-65.93549 0.40931,-106.81694 v -74.32992 l 19.89398,0.42187 c 22.28318,0.47254 31.26774,1.08905 42.15129,2.89238 18.58656,3.07967 30.90048,8.07737 44.75808,18.16543 6.50011,4.73195 17.54638,15.60779 23.49504,23.13253 2.54804,3.22313 30.94441,41.6694 63.10305,85.43615 32.15863,43.76674 59.15447,80.47807 59.99075,81.58072 l 1.52051,2.00482 H 243.63498 115.76932 Z"
           id="path221296" />
        <path
           style="fill:none;fill-opacity:0.936902;stroke:#030000;stroke-width:1.93388;stroke-linecap:round;stroke-linejoin:round;stroke-opacity:1"
           d="m 476.52741,463.14514 c -34.62434,-50.00077 -44.2845,-63.66762 -51.9881,-73.55089 -36.8145,-47.23081 -73.0979,-79.60914 -112.85086,-100.70507 l -6.92361,-3.67419 7.23204,-1.07232 c 63.204,-9.3715 109.57414,-31.81338 133.98748,-64.84628 11.81779,-15.99026 18.39125,-32.19263 22.02371,-54.28434 1.58536,-9.64181 1.57993,-38.07664 -0.009,-48.73253 C 464.67174,93.971783 459.04676,78.250225 448.99424,63.162769 442.91475,54.038263 432.04703,43.172651 422.91354,37.087113 394.68363,18.277855 352.05384,6.910418 293.32048,2.5305071 289.4266,2.2401295 333.91876,1.987439 397.7253,1.9375463 L 508.91566,1.8506024 V 254.76627 c 0,202.39493 -0.15457,252.91566 -0.7738,252.91566 -0.42559,0 -14.6521,-20.04156 -31.61445,-44.53679 z"
           id="path221335" />
        <path
           style="fill:none;fill-opacity:0.936902;stroke:#030000;stroke-width:1.93388;stroke-linecap:round;stroke-linejoin:round;stroke-opacity:1"
           d="m 339.89398,189.87382 c 0,-0.21772 0.46013,-2.15322 1.02251,-4.3011 1.26904,-4.84679 1.41655,-15.03369 0.28432,-19.63537 -1.46448,-5.95204 -4.32012,-11.1365 -8.36487,-15.18658 -6.43022,-6.43869 -17.09867,-10.83217 -41.10895,-16.92949 -13.49247,-3.42636 -21.41945,-5.98971 -24.9324,-8.0624 -3.11834,-1.83987 -5.48687,-6.14227 -5.43071,-9.86483 0.12987,-8.60861 7.57492,-12.87718 22.45978,-12.87718 14.2205,0 21.37731,4.24965 24.60025,14.60741 1.08605,3.49029 1.17467,3.5866 3.18516,3.46145 1.13742,-0.0708 7.55045,-0.30932 14.25117,-0.53004 l 12.18313,-0.40132 v -2.57891 c 0,-3.4136 -1.5213,-9.12946 -3.54648,-13.32486 -0.90075,-1.86602 -1.73582,-3.67036 -1.85571,-4.00964 -0.63986,-1.810738 7.09827,7.38298 9.08604,10.79518 10.46804,17.96947 11.51728,52.40406 2.19491,72.03431 -2.03605,4.28736 -4.02815,7.65192 -4.02815,6.80337 z"
           id="path221374" />
        <path
           style="fill:none;fill-opacity:0.936902;stroke:#030000;stroke-width:1.93388;stroke-linecap:round;stroke-linejoin:round;stroke-opacity:1"
           d="m 282.5253,193.33979 c -9.08168,-1.54143 -13.64962,-3.57885 -18.06869,-8.0591 -3.25291,-3.29794 -6.04322,-8.33928 -7.27431,-13.14274 -0.68505,-2.67295 -1.01256,-3.11626 -2.30219,-3.11626 -1.68414,0 -20.90213,1.69442 -24.01746,2.11758 l -2.00482,0.27232 V 126.01504 80.618481 l 12.80698,0.422326 c 12.67752,0.418056 33.95156,1.907293 34.4563,2.412028 0.14385,0.143856 -1.62959,0.43732 -3.94099,0.652142 -19.45694,1.808333 -34.72529,12.665242 -37.6998,26.807313 -2.22623,10.58445 0.56553,19.98033 8.20797,27.62452 8.03077,8.03263 16.56336,11.85835 39.8464,17.86577 16.13311,4.16261 24.01621,6.81923 26.85047,9.04866 2.38571,1.8766 3.95403,5.74153 3.96997,9.78345 0.0344,8.73461 -4.78511,14.36767 -14.44552,16.88389 -3.52705,0.91868 -13.69955,1.67689 -16.38431,1.22121 z"
           id="path221413" />
        <path
           style="fill:none;fill-opacity:0.936902;stroke:#030000;stroke-width:1.93388;stroke-linecap:round;stroke-linejoin:round;stroke-opacity:1"
           d="m 228.8918,197.34036 0.034,-23.0753 1.19461,4.62651 c 3.26453,12.64298 11.12413,22.55894 22.17843,27.98111 10.06805,4.93842 18.88652,6.56346 35.61732,6.56346 5.96935,0 10.73461,0.11876 10.58947,0.26389 -0.37394,0.37394 -10.21809,2.04316 -18.51042,3.13873 -9.74204,1.28709 -27.59111,2.6886 -40.39057,3.17148 l -10.74677,0.40543 z"
           id="path221452" />
        <path
           style="fill:none;fill-opacity:0.936902;stroke:#030000;stroke-width:1.93388;stroke-linecap:round;stroke-linejoin:round;stroke-opacity:1"
           d="m 162.59123,128.46265 c -5.3999,-25.02169 -9.94193,-46.118554 -10.0934,-46.881927 l -0.27539,-1.387952 h 20.47011 c 19.19887,0 20.4514,0.06704 20.16882,1.079518 -0.16571,0.593735 -4.6918,21.690601 -10.05798,46.881931 -5.36617,25.19132 -9.90011,45.80241 -10.07541,45.80241 -0.1753,0 -4.73684,-20.47229 -10.13675,-45.49398 z"
           id="path221491" />
        <path
           style="fill:none;fill-opacity:0.936902;stroke:#030000;stroke-width:1.93388;stroke-linecap:round;stroke-linejoin:round;stroke-opacity:1"
           d="m 138.69327,167.63379 c 0.11359,-29.26268 0.31204,-52.92728 0.441,-52.58801 0.31138,0.81917 21.25127,104.50858 21.25127,105.23126 0,0.31635 -4.78077,0.56154 -10.9494,0.56157 l -10.94939,6e-5 z"
           id="path221530" />
        <path
           style="fill:none;fill-opacity:0.936902;stroke:#030000;stroke-width:1.93388;stroke-linecap:round;stroke-linejoin:round;stroke-opacity:1"
           d="m 184.44337,220.55551 c 0,-0.5345 21.63795,-106.12651 21.87391,-106.74346 0.12976,-0.33928 0.25784,23.60289 0.28462,53.20482 l 0.0487,53.82168 h -11.10361 c -6.10699,0 -11.10362,-0.12737 -11.10362,-0.28304 z"
           id="path221569" />
        <path
           style="fill:none;fill-opacity:0.936902;stroke:#030000;stroke-width:1.93388;stroke-linecap:round;stroke-linejoin:round;stroke-opacity:1"
           d="M -0.82175562,510.97262 C -1.0483442,510.74603 -1.2337349,395.40658 -1.2337349,254.66272 V -1.2352036 L 255.53735,-1.0802525 512.30843,-0.9253012 V 255.0747 v 256 l -256.3591,0.15495 c -140.99751,0.0852 -256.544497,-0.0304 -256.77108562,-0.25703 z M 505.72864,505.47215 c -2.81424,-3.91876 -3.52037,-4.14964 -1.02561,-0.33533 1.12947,1.72689 2.27904,3.1448 2.55458,3.15089 0.27554,0.006 -0.4125,-1.26091 -1.52897,-2.81556 z M 509.41842,499.2 c -0.11478,-9.15253 -0.34404,-8.0599 -0.64743,3.08572 -0.0901,3.30872 0.0444,6.01522 0.29889,6.01446 0.25446,-6.2e-4 0.4113,-4.09584 0.34854,-9.10018 z m -141.29358,4.93494 c -6.84649,-9.50139 -106.76851,-145.17009 -117.55842,-159.61446 -8.53443,-11.42496 -22.10814,-25.0069 -30.67692,-30.69552 -14.50554,-9.62991 -27.88212,-14.26096 -48.45914,-16.77683 -7.70709,-0.94231 -34.4142,-2.17451 -47.28578,-2.18164 l -6.93976,-0.004 -6.2e-4,75.10362 c -3.6e-4,41.30698 -0.18451,89.05253 -0.40922,106.1012 l -0.40856,30.99759 h 126.92492 126.92493 l -2.11138,-2.93012 z m 139.76455,-21.59036 c 0.22417,-12.46844 0.40799,-125.58651 0.40849,-251.3735 L 508.2988,2.4674699 h -79.16688 c -43.54178,0 -88.02563,0.1913751 -98.85301,0.425278 l -19.68614,0.4252781 11.10362,1.4275792 c 39.47548,5.0753179 70.63261,14.0704918 93.4123,26.9684628 16.24635,9.198764 29.72237,22.544494 38.78972,38.414702 6.13466,10.737219 11.20699,25.70979 13.96289,41.21581 1.64248,9.24138 2.4289,28.70999 1.68338,41.67376 -2.78907,48.49828 -27.60663,84.27051 -74.44107,107.2999 -22.00076,10.8182 -45.52756,18.05414 -75.09413,23.09607 -6.35624,1.08391 -11.71524,2.12921 -11.90891,2.32287 -0.19366,0.19367 2.09219,1.67989 5.07968,3.30272 38.23481,20.76948 72.46213,51.02566 108.05525,95.51843 7.97614,9.97047 21.55583,28.93373 47.30834,66.06336 14.84566,21.40427 30.16908,43.29161 37.23534,53.18543 0.5376,0.75271 1.14061,1.37729 1.34003,1.38796 0.19942,0.0107 0.546,-10.18207 0.77018,-22.6505 z m -6.37614,16.88517 c 0,-0.1281 -0.48578,-0.61388 -1.07952,-1.07952 -0.97838,-0.7673 -1.0002,-0.74549 -0.2329,0.2329 0.80586,1.02755 1.31242,1.35432 1.31242,0.84662 z M 231.3253,321.15505 c 0,-0.1281 -0.48578,-0.61388 -1.07952,-1.07952 -0.97839,-0.7673 -1.0002,-0.74549 -0.2329,0.2329 0.80586,1.02755 1.31242,1.35432 1.31242,0.84662 z M 138.09676,168.86747 c 0.16046,-46.94555 0.38592,-54.64825 1.56503,-53.46913 0.37315,0.37314 21.34062,103.49795 21.34062,104.96008 0,1.25605 -1.17436,0.28005 -1.46344,-1.21625 -4.90464,-25.38703 -19.19258,-95.00388 -19.58562,-95.4294 -0.31087,-0.33655 -0.5413,20.09334 -0.5413,47.9909 v 48.57692 l 9.86404,-0.18366 c 7.46119,-0.13894 9.93588,0.004 10.15895,0.58741 0.22277,0.58246 3.41158,0.77108 13.03559,0.77108 10.20148,0 12.61164,-0.15548 12.09322,-0.78014 -0.46374,-0.55876 0.5648,-6.72913 3.6246,-21.74458 9.98177,-48.98385 16.74839,-81.57878 17.40754,-83.85236 0.65634,-2.26385 0.73553,-2.32885 1.12722,-0.9253 0.2317,0.83029 0.44895,25.31298 0.48277,54.406 l 0.0615,52.89638 h 5.76717 c 3.17194,0 7.89098,-0.17953 10.48674,-0.39895 l 4.71958,-0.39895 v -23.35045 c 0,-13.96674 0.23031,-23.35044 0.5731,-23.35044 0.49458,0 1.00356,1.44869 2.92584,8.32771 0.18962,0.67855 1.47715,3.45446 2.86118,6.16867 1.85779,3.6433 3.81698,6.2355 7.48538,9.9039 10.42406,10.42406 23.55659,14.46237 47.03146,14.46237 5.19204,0 8.65352,0.26515 9.37941,0.71847 1.33601,0.83436 6.0135,-0.15728 16.68383,-3.53704 7.77285,-2.462 12.98882,-5.48023 17.88127,-10.34705 4.44344,-4.42016 7.70785,-8.85232 6.75412,-9.17023 -0.49977,-0.16659 -0.41295,-1.47915 0.3073,-4.64585 1.32844,-5.84071 1.33345,-16.71484 0.01,-21.17622 -1.62493,-5.4767 -3.87378,-9.25793 -7.9015,-13.28565 -6.44719,-6.44721 -14.88954,-10.02655 -38.60317,-16.36678 -24.91867,-6.6624 -28.82982,-8.36073 -31.37838,-13.62536 -2.8077,-5.79993 -1.05893,-12.1299 4.25952,-15.41805 7.21331,-4.45964 24.91051,-4.75482 33.147,-0.55287 3.36142,1.71486 7.24608,6.30073 8.7561,10.33662 0.68987,1.84384 1.25431,3.6632 1.25431,4.04303 0,0.49815 2.86402,0.57765 10.27683,0.2853 5.65226,-0.22292 11.89804,-0.40531 13.87952,-0.40531 h 3.60269 v -2.02943 c 0,-2.79014 -1.58974,-8.64706 -3.50616,-12.91742 -0.87848,-1.9575 -1.62873,-4.08683 -1.66722,-4.731852 -0.10717,-1.795572 -8.09932,-7.995738 -13.71696,-10.641359 -5.85025,-2.755171 -12.87859,-4.521194 -21.51448,-5.40598 -7.93805,-0.81329 -20.6778,-1.188796 -20.31312,-0.598731 0.15485,0.250547 -1.17955,0.721278 -2.96532,1.046071 -1.78578,0.324793 -5.0512,0.920502 -7.2565,1.323798 -9.73777,1.780791 -16.97425,5.404912 -23.45722,11.747673 -5.84278,5.71642 -8.64307,12.4012 -8.60481,20.54121 0.0373,7.93532 2.76415,13.82819 9.48762,20.50328 7.74232,7.6866 14.6223,10.71807 39.8467,17.55736 20.27251,5.49664 24.5289,7.12756 27.3493,10.47941 3.99481,4.74757 3.74636,13.79671 -0.53284,19.40703 -3.43959,4.50955 -9.09685,6.81781 -19.1045,7.79501 -5.8853,0.57467 -7.72587,0.52662 -11.81398,-0.30842 -11.60073,-2.36955 -19.09729,-8.88989 -22.55146,-19.61473 -0.92989,-2.88722 -1.65776,-4.18666 -2.34512,-4.18666 -1.41359,0 -20.74902,1.77537 -23.89779,2.19428 l -2.62169,0.34879 V 126.27863 80.375629 l -5.08915,-0.396165 c -2.79904,-0.217889 -11.04101,-0.39783 -18.3155,-0.399865 -10.70344,-0.0031 -13.03529,0.143384 -12.22477,0.767389 0.91834,0.707016 0.87774,1.334901 -0.48862,7.556626 -0.8196,3.732049 -5.10556,23.579756 -9.52436,44.106026 -4.41881,20.52626 -8.47225,38.2452 -9.00764,39.3754 -1.15027,2.42816 -1.95552,2.14761 -0.97234,-0.33876 0.61515,-1.55564 4.73931,-20.32355 15.5313,-70.67859 2.09374,-9.769333 3.65177,-18.166442 3.46228,-18.660238 -0.29132,-0.759166 -3.30242,-0.897813 -19.49853,-0.897813 h -19.154 l 0.32115,1.387951 c 0.17663,0.763374 3.39533,15.683856 7.15267,33.15663 3.75733,17.47277 7.91058,36.59992 9.22945,42.50478 1.3264,5.9386 2.18613,11.11458 1.92396,11.58307 -0.46525,0.83133 -4.20763,-15.60961 -15.0148,-65.96255 l -5.13039,-23.903616 h -17.73529 -17.7353 v 70.939756 70.93976 h 10.97297 10.97296 z m 67.93697,2.18988 c 0,-27.71852 -0.23286,-48.90871 -0.53383,-48.57831 -0.29361,0.32231 -1.83556,6.9706 -3.42655,14.77397 -10.25193,50.28274 -16.41387,80.37922 -16.70282,81.58072 l -0.33379,1.38796 h 10.4985 10.49849 z m 54.90121,46.96543 c 13.01275,-1.01917 26.07875,-2.58957 27.9982,-3.3651 0.86165,-0.34814 -0.68744,-0.53971 -4.57342,-0.56556 -26.55258,-0.17668 -44.71447,-9.95211 -52.41898,-28.21391 -0.90662,-2.14893 -1.83236,-4.09112 -2.05722,-4.31597 -0.22485,-0.22486 -0.40882,8.28137 -0.40882,18.90272 v 19.31153 l 10.0241,-0.42995 c 5.51325,-0.23647 15.15951,-0.83216 21.43614,-1.32376 z m 35.60891,-26.22617 c 9.7618,-1.52143 15.2046,-6.44598 16.03687,-14.50992 0.43597,-4.22418 -0.74977,-8.47409 -2.98908,-10.7134 -2.28162,-2.28161 -8.56962,-4.50666 -26.81994,-9.49039 -16.88991,-4.61224 -22.05581,-6.35908 -28.6223,-9.67863 -8.8521,-4.47499 -16.15853,-11.89929 -19.20289,-19.5127 -2.04176,-5.10607 -2.0421,-15.51407 -6.2e-4,-20.69528 4.14024,-10.508088 14.83997,-18.765007 28.79243,-22.218953 l 5.52439,-1.36757 -3.08434,-0.421747 c -3.63194,-0.496621 -27.28155,-1.766252 -32.84819,-1.763451 l -3.85548,0.0019 v 44.759301 c 0,24.61761 0.20819,44.63891 0.46265,44.49177 0.25446,-0.14713 6.07563,-0.75952 12.93593,-1.36085 9.34846,-0.81942 12.68467,-0.91789 13.31704,-0.39308 0.46405,0.38514 1.19752,1.88331 1.62992,3.32926 1.91721,6.41121 5.85346,12.27833 10.28144,15.32487 6.93619,4.77222 16.13595,6.13682 28.44217,4.21883 z m 48.54376,-13.57052 c 3.18568,-8.9277 4.28602,-16.36175 4.28412,-28.94416 -0.002,-18.38991 -3.57593,-32.11589 -10.87825,-41.78773 -1.36049,-1.80197 -2.58738,-3.16255 -2.72642,-3.02352 -0.13902,0.13904 0.35085,2.02013 1.08862,4.18021 0.73776,2.16009 1.48063,5.76937 1.65081,8.02064 l 0.30942,4.09321 -12.56941,0.43928 c -14.31436,0.50026 -16.57925,0.37996 -17.22327,-0.91486 -0.25314,-0.50892 -1.45909,-3.04231 -2.67991,-5.62976 -2.51817,-5.33712 -4.6961,-7.34928 -10.12991,-9.35889 -4.8172,-1.78157 -20.32037,-1.8916 -25.10016,-0.17814 -6.17275,2.2128 -8.94458,5.48853 -8.94458,10.57064 0,3.2323 1.23174,6.26716 3.35206,8.2591 2.2248,2.09009 8.83865,4.503 21.93951,8.00412 17.15776,4.58529 30.33702,8.90119 36.37647,11.9124 9.00335,4.48901 14.80235,11.43051 17.60599,21.07466 0.80421,2.76638 0.98927,5.42011 0.82377,11.81232 -0.1174,4.5344 0.002,8.02785 0.26696,7.76324 0.26423,-0.26463 1.41361,-3.09636 2.55418,-6.29276 z m -5.8105,-72.35779 c 0,-0.12809 -0.48578,-0.61388 -1.07952,-1.07952 -0.97839,-0.7673 -1.00021,-0.74548 -0.2329,0.23291 0.80585,1.02754 1.31242,1.35432 1.31242,0.84661 z M 292.39518,2.487673 c 0,-0.3372887 3.01678,-0.6822055 6.93976,-0.7934421 3.81687,-0.1082277 -5.96819,-0.2123877 -21.74458,-0.2314667 -28.43396,-0.034386 -28.52821,-0.030382 -10.79725,0.4587161 9.8379,0.2713729 18.582,0.6024399 19.43133,0.7357046 3.14126,0.4928818 6.17074,0.4096612 6.17074,-0.1695119 z"
           id="path221645" />
        <path
           style="fill:none;fill-opacity:0.936902;stroke:#030000;stroke-width:1.93388;stroke-linecap:round;stroke-linejoin:round;stroke-opacity:1"
           d="m 7.0359533,511.53963 -8.0773,-0.19097 -0.4046279,-10.2596 C -1.6685199,495.44628 -1.8506024,379.97645 -1.8506024,244.48943 V -1.8506024 H 254.71581 c 141.11153,0 257.00551,0.1684943 257.54217,0.3744316 0.88759,0.340601 0.97575,23.5205178 0.97575,256.5508708 0,233.03035 -0.0882,256.21027 -0.97575,256.55087 -0.96097,0.36876 -489.504179,0.28566 -505.2220267,-0.0859 z M 368.48414,505.67711 C 367.01196,503.2894 252.07173,347.34689 247.42738,341.43614 242.3549,334.98053 228.58665,321.1438 223.14356,317.03154 209.95414,307.06691 195.89081,301.3955 177.499,298.62417 c -9.55594,-1.43992 -23.15725,-2.33394 -44.40984,-2.91909 l -15.26747,-0.42036 v 75.87074 c 0,41.7289 -0.18411,89.24068 -0.40914,105.58173 l -0.40914,29.711 h 125.97808 c 100.62477,0 125.88239,-0.15518 125.50265,-0.77108 z m 139.19779,-2.57028 c 0,-0.48064 -0.2082,-0.96643 -0.46265,-1.07952 -0.25446,-0.11309 -0.28949,-11.44803 -0.0778,-25.18876 0.21165,-13.74072 0.41984,-125.95662 0.46265,-249.36867 l 0.0778,-224.3855427 -75.10362,0.0012 c -65.53455,0.00104 -109.75617,0.4048746 -109.16416,0.9968837 0.10045,0.100455 3.85383,0.7533056 8.34083,1.4507798 45.37637,7.0534452 77.77442,18.9545442 99.11936,36.4105062 8.77756,7.178315 17.85105,17.940562 23.31114,27.64981 7.69614,13.685427 13.27389,31.799923 15.3251,49.770343 0.96368,8.44276 0.96204,34.31757 -0.002,41.94698 -6.40282,50.63707 -36.04462,85.2906 -91.74392,107.25565 -16.14546,6.36697 -32.25378,10.72509 -56.06761,15.16912 l -12.33735,2.30234 2.7759,1.65111 c 1.52675,0.9081 6.02244,3.56115 9.99043,5.89566 34.06093,20.03929 65.99505,48.99547 98.36556,89.19273 9.24064,11.47489 16.45463,21.5839 64.59273,90.51412 11.78745,16.87903 21.69428,30.68915 22.01498,30.68915 0.32071,0 0.5831,-0.39325 0.5831,-0.87389 z M 137.56145,168.40482 c 0.16963,-28.66892 0.53301,-52.47229 0.80749,-52.89639 0.86565,-1.3375 1.58088,-0.84671 2.24746,1.54217 0.64302,2.30449 12.72922,61.27276 18.26968,89.13735 l 2.91305,14.6506 h 10.90696 10.90696 l 0.77292,-5.08915 c 0.64287,-4.23282 8.25438,-41.94766 16.71341,-82.81446 3.27216,-15.80826 4.37213,-20.04819 5.20114,-20.04819 1.32541,0 1.57727,9.55909 1.58063,59.99036 l 0.003,47.96144 4.78072,-0.004 c 2.6294,-0.002 7.07084,-0.18197 9.86988,-0.39986 l 5.08916,-0.39617 v -22.30633 c 0,-17.90048 0.16672,-22.53434 0.84409,-23.46071 0.82277,-1.12519 0.85936,-1.12428 1.44733,0.0363 0.33178,0.65488 0.96279,2.57864 1.40225,4.27502 2.42907,9.37667 9.77233,19.48896 18.08546,24.90517 8.61774,5.61468 18.18421,7.84029 37.59597,8.7466 16.58404,0.77428 15.56542,0.84427 23.78368,-1.63412 8.78522,-2.64935 12.6021,-4.34241 17.43952,-7.73566 4.20827,-2.95194 11.24222,-10.87465 10.76315,-12.12311 -0.17466,-0.45513 0.0971,-3.20524 0.60387,-6.11135 1.81727,-10.421 0.97142,-18.81146 -2.57985,-25.59093 -2.36969,-4.52381 -7.42573,-9.76544 -11.99351,-12.43375 -4.7263,-2.76092 -15.1259,-6.37345 -31.44934,-10.92461 -26.76595,-7.46266 -29.7559,-8.84387 -32.2939,-14.91817 -2.06959,-4.9532 -0.50382,-11.21051 3.58572,-14.32976 6.68431,-5.09837 24.30017,-6.17 33.85521,-2.05954 4.08645,1.75795 8.67943,6.91574 10.42738,11.70967 l 1.37422,3.76891 8.30974,-0.39853 c 4.57035,-0.2192 10.52233,-0.39854 13.22661,-0.39854 h 4.91688 l -0.39924,-3.00961 c -0.37088,-2.79583 -1.76231,-7.25805 -4.49821,-14.42543 -0.8082,-2.117282 -2.07004,-3.713322 -4.5145,-5.710202 -9.79767,-8.003683 -22.0048,-11.462736 -41.02169,-11.624047 -8.17059,-0.0693 -11.03814,0.16178 -16.65542,1.342199 -13.44181,2.824667 -19.31795,5.57275 -25.96155,12.141376 -5.13554,5.077594 -7.46489,9.419894 -8.44304,15.739294 -1.37207,8.86427 1.21969,16.33101 8.22103,23.68445 7.47227,7.84807 13.37914,10.56495 38.82934,17.85967 22.81101,6.53826 24.94942,7.33702 28.15067,10.51512 7.10223,7.05085 4.20267,20.52341 -5.47218,25.42603 -6.36048,3.2231 -18.26438,4.63002 -25.51877,3.01607 -11.88931,-2.64512 -18.75101,-8.32931 -22.77876,-18.86979 -0.89535,-2.34312 -1.85299,-4.39931 -2.12809,-4.56934 -0.43419,-0.26835 -12.63105,0.72562 -23.60709,1.92383 l -3.54698,0.38721 V 126.93969 80.997123 l -6.57307,-0.402173 c -3.61519,-0.221202 -11.24893,-0.402179 -16.96386,-0.402179 H 193.6962 v 1.701253 c 0,2.350382 -16.89578,80.461116 -19.13197,88.448846 -0.77979,2.78545 -2.2604,4.23063 -2.82553,2.75793 -0.20995,-0.54713 -0.22883,-1.39323 -0.0419,-1.88022 0.18688,-0.487 0.0647,-0.97713 -0.27145,-1.08919 -1.04299,-0.34767 -3.27668,-10.05736 -17.88738,-77.755486 L 150.90858,80.192771 H 133.7482 116.58781 v 70.337809 70.33781 l 10.33253,-0.16914 10.33253,-0.16913 z m 19.30317,40.55904 c -1.1621,-5.85253 -4.74914,-23.54892 -7.9712,-39.32531 -3.22205,-15.77638 -6.3118,-30.97445 -6.86611,-33.77349 -0.55431,-2.79904 -1.23072,-5.08916 -1.50312,-5.08916 -0.2724,0 -0.49527,19.98651 -0.49527,44.41446 v 44.41446 h 9.47431 9.47431 z m 48.55225,-34.35396 c 0,-40.39257 -0.31454,-50.05263 -1.42184,-43.66753 -0.37026,2.13502 -17.50376,85.775 -17.94122,87.58293 -0.24046,0.99382 0.51778,1.07952 9.55093,1.07952 h 9.81213 z m 40.09638,43.76401 c 12.94027,-0.77338 32.35515,-2.48638 34.41057,-3.03608 1.09352,-0.29245 -0.43902,-0.65586 -5.00324,-1.18641 -9.3732,-1.08955 -15.24871,-2.72488 -22.33072,-6.2153 -4.2758,-2.10735 -7.50086,-4.25285 -10.4439,-6.94789 -4.25967,-3.90075 -9.70108,-11.37356 -10.44761,-14.34798 -0.2181,-0.86901 -0.66886,-1.58001 -1.00167,-1.58001 -0.38091,0 -0.60511,6.28551 -0.60511,16.96386 v 16.96385 l 2.62168,-0.003 c 1.44193,-0.002 7.20193,-0.27661 12.8,-0.61118 z m 50.58314,-27.18203 c 5.0711,-0.81522 9.60417,-2.87982 12.20705,-5.55974 3.88907,-4.00417 4.85408,-12.35446 1.9749,-17.0889 -1.98263,-3.26016 -5.29347,-4.52753 -30.92968,-11.83971 -8.36307,-2.38539 -17.64174,-5.35686 -20.61927,-6.60328 -18.54657,-7.76375 -27.91146,-21.37542 -25.59969,-37.20864 1.76606,-12.09565 11.54676,-22.264365 26.14442,-27.181595 4.08124,-1.374769 4.75687,-1.767757 3.51142,-2.042485 -1.76561,-0.389472 -23.99593,-1.624157 -29.24267,-1.624157 h -3.49102 l 0.17408,43.438067 c 0.0957,23.89094 0.35213,43.61599 0.56977,43.83346 0.21764,0.21745 5.8509,-0.0693 12.51836,-0.63715 13.81869,-1.17697 13.69307,-1.20681 15.12822,3.59243 2.86069,9.56636 9.45541,16.13647 18.69441,18.62465 3.86639,1.04126 13.40105,1.19065 18.9597,0.29705 z m 49.42196,-16.30776 c 2.14944,-7.11426 3.00693,-14.21092 3.00942,-24.90616 0.003,-11.95483 -1.18084,-20.97131 -3.77417,-28.75063 -1.91957,-5.75819 -4.74384,-11.28719 -6.50803,-12.74059 -0.92704,-0.76373 -0.97726,-0.66862 -0.53178,1.00724 1.00093,3.76545 1.5103,6.85233 1.53645,9.31127 l 0.0268,2.52573 -8.79036,0.40213 c -11.13292,0.5093 -19.19724,0.51693 -20.49378,0.0194 -0.55504,-0.21299 -2.2148,-2.7807 -3.68838,-5.70603 -3.04499,-6.0449 -4.33815,-7.45416 -8.67372,-9.4525 -2.85853,-1.31759 -3.88558,-1.41812 -14.48867,-1.41812 -9.9588,0 -11.68699,0.14666 -13.57109,1.15168 -6.2205,3.31815 -8.16828,8.01331 -5.79007,13.95705 0.5475,1.36835 1.72726,2.99696 2.62168,3.61914 2.5984,1.8075 9.31102,4.12338 23.52502,8.11623 29.48946,8.28387 38.46362,12.15555 44.70004,19.28472 5.87729,6.71861 8.34494,13.6707 8.36001,23.55259 0.0106,6.95027 0.43742,6.95479 2.53059,0.0268 z m -171.98997,-9.70288 c 0.1952,-1.11088 3.16904,-14.92775 6.60853,-30.70413 3.43949,-15.77639 7.30635,-33.95856 8.59302,-40.404821 2.29663,-11.506213 2.31686,-11.729112 1.1065,-12.192466 -0.67809,-0.259584 -9.06058,-0.398379 -18.62774,-0.308433 l -17.39484,0.16355 6.95738,32.07711 c 3.82656,17.64241 7.98845,36.9922 9.24864,42.99953 1.26019,6.00733 2.48529,10.80251 2.72243,10.65594 0.23715,-0.14656 0.59088,-1.17539 0.78608,-2.28628 z"
           id="path221684" />
        <path
           style="fill:none;fill-opacity:0.936902;stroke:#030000;stroke-width:1.93388;stroke-linecap:round;stroke-linejoin:round;stroke-opacity:1"
           d="M 12.645783,512.02243 -1.5421687,511.69157 -1.9194815,501.51325 C -2.1270036,495.91518 -2.3351963,380.22584 -2.3821321,244.42582 L -2.4674699,-2.4833004 254.73545,-2.3211683 c 210.0489,0.1324078 257.34993,0.3091527 258.00482,0.9640599 1.18946,1.18950286 1.18947,511.6740984 0,512.8636184 -0.65517,0.65519 -45.18247,0.80603 -243.35422,0.82435 -133.40377,0.0123 -248.936893,-0.12646 -256.740267,-0.30843 z m 354.070427,-6.89915 c 0.43571,-0.43586 -3.72264,-6.1767 -48.41457,-66.83894 -70.92496,-96.26946 -71.39978,-96.90175 -78.49147,-104.52282 -17.38175,-18.67927 -30.59558,-27.05606 -50.66249,-32.11705 -11.88906,-2.99849 -26.82282,-4.38948 -56.98382,-5.30769 l -13.72531,-0.41785 v 76.17054 c 0,41.8938 -0.1843,89.13953 -0.40955,104.99051 l -0.40957,28.81998 124.34866,-0.18854 c 68.39176,-0.10369 124.52842,-0.36835 124.74812,-0.58814 z M 506.97526,195.7012 507.06506,3.7012048 H 439.0018 c -70.52252,0 -108.82782,0.4844316 -105.58493,1.3352905 1.01783,0.2670548 5.87566,1.1968468 10.79518,2.066205 26.46312,4.6764597 53.11628,13.4223937 69.98343,22.9642747 28.19183,15.948342 45.01945,39.021824 52.97782,72.641455 2.74585,11.59968 3.49658,19.76787 3.49658,38.044 0,18.06838 -0.63668,24.70848 -3.47641,36.25602 -5.67241,23.06654 -16.45561,41.89668 -33.09547,57.79287 -11.49068,10.97713 -22.52227,18.39861 -40.22812,27.06339 -21.35685,10.45148 -38.76412,15.96389 -69.04788,21.86559 -7.10212,1.38406 -13.01269,2.61621 -13.13459,2.73811 -0.12189,0.1219 3.05182,2.11765 7.05271,4.43499 34.27098,19.85004 65.90281,47.69146 97.48177,85.80062 11.06119,13.34854 18.25905,23.25199 52.60267,72.3755 19.51982,27.92022 31.06014,44.28226 34.80666,49.3494 l 2.50854,3.39277 0.37285,-57.06024 c 0.20507,-31.38314 0.41326,-143.46025 0.46265,-249.06025 z m -370.85212,23.6981 c 0.28215,-0.28268 0.67491,-23.65485 0.87279,-51.93816 0.36363,-51.97317 0.42696,-53.34066 2.46995,-53.34066 1.09442,0 1.83326,2.84095 6.10302,23.46686 4.17364,20.16158 16.66724,81.93642 16.66724,82.41145 0,0.12259 4.65171,0.2229 10.33714,0.2229 h 10.33712 l 2.03415,-10.64097 c 1.11877,-5.85253 5.36983,-27.01879 9.4468,-47.03614 10.19069,-50.03499 10.87862,-52.63176 12.97012,-48.95871 0.67488,1.1852 0.86845,11.37287 1.02872,54.1417 l 0.19741,52.6818 9.01138,-0.40947 c 4.95626,-0.2252 9.1096,-0.50768 9.22965,-0.62773 0.29565,-0.29564 0.23892,-137.474093 -0.057,-137.769992 -0.12878,-0.128778 -7.41917,-0.402186 -16.20085,-0.607578 l -15.96672,-0.373445 -1.42445,7.342437 c -1.73345,8.935301 -12.19894,57.508618 -15.60383,72.421948 -2.28656,10.0151 -3.65716,13.67418 -5.13892,13.71928 -1.65288,0.0503 -3.39677,-7.10024 -16.40883,-67.28178 -3.0318,-14.022257 -5.51237,-25.611654 -5.51237,-25.754212 0,-0.142552 -7.49494,-0.259189 -16.65542,-0.259189 h -16.65542 v 69.762601 69.7626 l 9.20266,-0.21079 c 5.06146,-0.11594 9.4335,-0.44208 9.71566,-0.72475 z m 21.80474,-1.18243 c 0.025,-1.96805 -16.36003,-81.27229 -16.79167,-81.27229 -0.26974,0 -0.49043,18.45976 -0.49043,41.02169 v 41.02168 h 8.63615 c 6.49244,0 8.63858,-0.1914 8.64595,-0.77108 z m 46.81063,-39.78795 c -0.0338,-22.30747 -0.25295,-41.24635 -0.48696,-42.08639 -0.29948,-1.07504 -1.27569,2.66991 -3.29643,12.64578 -1.57902,7.79523 -5.38494,26.37376 -8.45761,41.28565 -3.07267,14.91187 -5.58667,27.47284 -5.58667,27.91325 0,0.6196 2.02346,0.80074 8.94458,0.80074 H 204.8 l -0.0615,-40.55903 z m 53.11209,38.36571 c 6.61591,-0.4959 13.13928,-1.08342 14.49639,-1.30561 2.33391,-0.38211 2.15239,-0.46699 -3.35365,-1.56798 -6.88871,-1.37748 -15.19686,-4.38912 -20.19594,-7.32089 -4.40491,-2.5833 -12.807,-10.9534 -15.31306,-15.25475 -1.01783,-1.74699 -2.0588,-3.18185 -2.31326,-3.18858 -0.25445,-0.007 -0.46265,6.82439 -0.46265,15.18027 v 15.19252 l 7.55663,-0.41667 c 4.15614,-0.22917 12.96964,-0.82241 19.58554,-1.31831 z m 53.35904,-7.00893 c 8.53141,-2.63352 15.35668,-6.12765 19.76517,-10.11859 5.97803,-5.41182 6.84837,-7.06233 7.9575,-15.09073 1.17725,-8.52143 1.19435,-12.19698 0.0812,-17.44811 -1.25943,-5.94111 -3.19824,-9.55022 -7.68591,-14.30739 -6.3641,-6.74628 -11.21833,-8.7627 -44.1444,-18.33732 -19.96593,-5.80592 -23.35838,-7.45561 -25.95034,-12.61913 -3.37111,-6.71573 -0.74493,-14.26191 6.11988,-17.58511 7.8406,-3.79556 23.14456,-4.05692 31.33135,-0.53505 3.94009,1.69497 9.26127,7.44749 10.86441,11.74507 l 1.21521,3.25765 4.38683,-0.0181 c 2.41275,-0.01 8.1587,-0.0794 12.76876,-0.15421 l 8.38194,-0.13609 -0.44016,-2.62168 c -0.63406,-3.77674 -4.50609,-14.63217 -5.93486,-16.638689 -1.79006,-2.513901 -8.57241,-7.139877 -13.50924,-9.214112 -7.52672,-3.162396 -13.83902,-4.253357 -26.89031,-4.647486 -13.27282,-0.400815 -19.47273,0.35452 -29.39298,3.580978 -6.90158,2.244669 -10.15699,4.169068 -15.36731,9.084224 -5.15575,4.863675 -7.71698,9.709405 -8.65133,16.367965 -1.25055,8.91192 1.77442,16.17323 10.01509,24.0408 7.09036,6.76933 11.17566,8.50551 40.24946,17.10533 18.88605,5.58636 22.39071,7.03816 25.35765,10.50436 6.38817,7.46315 3.27765,20.55371 -6.02233,25.34483 -10.88536,5.60786 -27.48212,5.07396 -37.68598,-1.21232 -5.2496,-3.23411 -9.42985,-8.60941 -11.96299,-15.38296 -1.2939,-3.45986 -1.44421,-3.61601 -3.33216,-3.4617 -1.08743,0.0889 -5.72461,0.46319 -10.30485,0.8318 -4.58025,0.3686 -9.19369,0.81796 -10.25209,0.99859 l -1.92438,0.3284 1.92861,5.68345 c 2.66069,7.84079 5.36094,12.14257 11.48159,18.29137 9.63534,9.67966 18.74536,12.72503 42.25542,14.12547 13.39199,0.79774 18.05236,0.47316 25.29157,-1.76147 z m -16.0577,-19.20249 c 4.38047,-0.63305 10.15832,-2.88748 12.2487,-4.77924 4.22743,-3.82577 5.058,-14.03886 1.45863,-17.9359 -2.04236,-2.21126 -5.25572,-3.38995 -25.7171,-9.43329 -10.34795,-3.0563 -21.33497,-6.59089 -24.4156,-7.85465 -22.40404,-9.19074 -32.05671,-28.3525 -23.30559,-46.26452 3.68425,-7.541016 11.57411,-14.422074 20.57902,-17.947761 1.86602,-0.730606 3.61578,-1.545407 3.88834,-1.810673 0.51154,-0.49783 -5.1727,-0.963892 -20.38954,-1.671778 l -8.79037,-0.408928 0.001,23.37864 c 5.6e-4,12.85824 0.18278,32.26152 0.40492,43.11838 l 0.40388,19.73976 7.15171,-0.45138 c 14.48509,-0.91423 17.08626,-0.87342 18.37701,0.28829 0.65427,0.58885 1.66589,2.58171 2.24806,4.42856 1.30922,4.15329 5.25827,10.16767 8.09858,12.33409 6.85491,5.22849 16.01444,6.96759 27.75831,5.2704 z m 50.54679,-18.84501 c 1.65206,-6.43527 2.39541,-16.03835 2.02479,-26.15748 -0.38944,-10.63299 -1.49878,-17.89646 -3.7214,-24.36626 -2.6743,-7.78457 -6.03802,-13.43721 -4.86381,-8.1735 0.24598,1.10265 0.44723,3.53157 0.44723,5.39759 v 3.39278 l -5.86024,0.3936 c -3.22313,0.21648 -9.8159,0.42468 -14.6506,0.46265 -10.21996,0.0803 -9.7716,0.30186 -13.41386,-6.62936 -4.81807,-9.16882 -6.53535,-9.92549 -22.56713,-9.94347 l -12.07737,-0.0135 -2.81939,1.86749 c -3.62011,2.39786 -5.07352,5.32494 -4.5541,9.17169 0.80381,5.95296 3.59374,7.58089 22.36251,13.04851 30.54622,8.89855 40.28287,12.70755 46.29054,18.10897 6.60018,5.93412 10.48438,13.98237 11.1243,23.05005 0.19933,2.82452 0.57632,4.91396 0.83776,4.64319 0.26145,-0.27077 0.90979,-2.18457 1.44077,-4.2529 z M 180.87749,127.84578 c 9.08452,-42.676486 9.43416,-44.45816 8.84081,-45.050167 -0.55259,-0.551344 -34.01507,-0.594611 -34.56442,-0.04472 -0.33486,0.335212 4.22448,22.111657 15.25344,72.853897 1.08771,5.00434 2.12314,9.09879 2.30096,9.09879 0.17782,0 3.85396,-16.58602 8.16921,-36.85783 z"
           id="path221723" />
      </g>
      <path
         style="fill:#000000;fill-opacity:0.936902;stroke:#030000;stroke-width:2.73492;stroke-linecap:round;stroke-linejoin:round;stroke-opacity:1"
         d="M 158.86706,196.28603 C 146.9347,136.0858 143.00012,118.1906 140.67555,113.54763 l -2.33318,-4.66017 -1.05269,4.66017 c -0.70863,3.13702 -1.26082,20.95362 -1.68946,54.51068 l -0.63677,49.8505 -3.14353,0.51998 c -1.72894,0.28599 -5.40081,0.52429 -8.15972,0.52957 l -5.0162,0.01 V 150.48595 82.00394 h 15.2079 c 13.7269,0 15.2527,0.148673 15.66788,1.526669 0.25298,0.839668 3.45185,15.462977 7.1086,32.496241 10.72748,49.96902 13.64943,61.06677 16.07843,61.06677 0.25921,0 1.38751,-1.99717 2.50733,-4.43814 2.01732,-4.39734 6.78177,-24.81877 15.90844,-68.18683 l 4.72726,-22.462987 5.23429,0.0031 c 2.87886,0.0017 9.65073,0.257587 15.0486,0.568619 l 9.8143,0.565514 v 67.398024 67.39803 l -7.45422,0.62093 c -4.09982,0.34152 -7.60259,0.47256 -7.78393,0.29122 -0.18134,-0.18134 -0.58113,-23.29284 -0.88842,-51.35889 -0.3712,-33.90379 -0.89393,-52.26328 -1.55758,-54.70648 l -0.99889,-3.6773 -1.71528,1.84113 c -2.33035,2.50135 -4.88076,13.40321 -14.96367,63.96309 -4.68863,23.5107 -8.75898,43.00806 -9.04524,43.32745 -0.28625,0.31939 -4.47371,0.71196 -9.30546,0.87239 l -8.785,0.29166 z"
         id="path221997" />
      <path
         style="fill:#000000;fill-opacity:0.936902;stroke:#030000;stroke-width:2.73492;stroke-linecap:round;stroke-linejoin:round;stroke-opacity:1"
         d="m 275.35042,209.3191 c -13.91981,-1.616 -21.61285,-4.71182 -29.2275,-11.76165 -6.40244,-5.92753 -9.37832,-10.23706 -11.93737,-17.28719 l -2.03633,-5.61001 3.65987,-0.4986 c 2.01292,-0.27423 6.80603,-0.75077 10.65135,-1.05898 l 6.99148,-0.56038 2.53866,5.31148 c 3.38053,7.07288 8.27305,11.97709 15.16689,15.20311 4.84142,2.26557 6.97748,2.71378 14.53514,3.0499 14.11797,0.6279 23.41831,-2.88118 27.79684,-10.4879 5.44204,-9.45434 3.05383,-19.84467 -5.57286,-24.24568 -1.84743,-0.94249 -12.50791,-4.51222 -23.68995,-7.93273 -25.28679,-7.73505 -31.46395,-10.48416 -37.80454,-16.82475 -11.63021,-11.63022 -12.21021,-24.80861 -1.5964,-36.27279 10.17957,-10.995149 26.85483,-15.309111 51.06347,-13.210338 12.72096,1.102846 20.12152,3.390876 27.57783,8.526239 5.08442,3.501773 7.2137,7.029859 10.09183,16.721579 l 1.34195,4.51882 h -7.68266 c -4.22547,0 -9.41051,0.23683 -11.52231,0.52629 -3.80816,0.52196 -3.84944,0.49923 -5.03185,-2.77068 -1.84966,-5.11515 -8.60959,-11.32467 -14.10514,-12.95668 -6.14612,-1.825198 -19.95735,-1.814998 -26.13412,0.0193 -11.20419,3.32728 -15.41791,14.74353 -8.62791,23.37562 2.8057,3.56686 6.71159,5.16334 29.10411,11.89593 30.33745,9.12133 35.37267,11.46036 41.60199,19.32552 3.18372,4.01978 5.98146,12.37093 5.98146,17.85445 0,6.66658 -1.83448,16.31469 -3.6753,19.32952 -3.60606,5.90593 -14.67885,12.50716 -25.82317,15.39494 -5.64735,1.46338 -22.82441,1.68075 -33.63546,0.42565 z"
         id="path222036" />
      <path
         style="fill:none;fill-opacity:0.936902;stroke:#030000;stroke-width:2.73492;stroke-linecap:round;stroke-linejoin:round;stroke-opacity:1"
         d="m 119.3158,401.13306 c 0.12959,-56.70727 0.42179,-103.2903 0.64933,-103.51784 0.77354,-0.77355 46.18002,1.63817 55.38372,2.94164 18.13938,2.56898 33.02092,8.27123 44.91299,17.20956 11.57792,8.70221 21.78664,20.14591 41.44008,46.45321 15.34765,20.54374 86.68242,117.3687 99.78203,135.43736 l 3.32047,4.58 -122.86211,1e-4 -122.86212,10e-5 z"
         id="path222340" />
      <path
         style="fill:none;fill-opacity:0.936902;stroke:#030000;stroke-width:2.73492;stroke-linecap:round;stroke-linejoin:round;stroke-opacity:1"
         d="M 481.07506,463.89598 C 430.3297,391.63982 424.1447,383.2771 407.04057,363.79422 381.646,334.86792 353.38776,310.38805 326.27678,293.82924 c -7.8277,-4.78099 -10.06573,-6.52797 -8.93275,-6.97284 0.83144,-0.32647 8.32072,-2.01307 16.64284,-3.748 32.58014,-6.79205 60.13757,-17.62802 82.13951,-32.29839 31.76207,-21.1782 50.7458,-51.62545 55.07489,-88.3324 1.53382,-13.00549 0.48633,-45.66939 -1.80467,-56.27492 C 458.00203,53.454788 425.94535,24.607304 362.03867,9.5923841 355.56123,8.0705052 349.47637,6.4939174 348.51675,6.0888558 347.54942,5.6805423 382.28233,5.3260716 426.46584,5.2933371 L 506.1597,5.2342941 505.52739,251.02802 c -0.34778,135.18655 -0.71796,245.89487 -0.82262,246.01848 -0.10467,0.12362 -10.73805,-14.79412 -23.62971,-33.15052 z"
         id="path222379" />
      <path
         style="fill:#aa4400;fill-opacity:0.936902;stroke:#030000;stroke-width:2.73492;stroke-linecap:round;stroke-linejoin:round;stroke-opacity:1"
         d="M 2.617147,255.17183 V 2.617147 H 125.44359 c 150.83024,0 173.06067,0.6203653 206.93408,5.7747298 74.52175,11.3396372 112.88041,35.9224902 128.19929,82.1588802 5.12815,15.478083 6.39977,24.096513 6.81946,46.218713 0.42006,22.14259 -0.4824,30.83721 -4.71781,45.45272 -15.14875,52.27513 -63.50423,85.59771 -144.19945,99.37025 -7.88408,1.34561 -14.48184,2.88799 -14.66168,3.4275 -0.17984,0.53953 2.34505,2.44281 5.61087,4.22953 39.29804,21.49972 71.1349,48.85004 105.03924,90.23685 11.50102,14.0392 16.93609,21.42355 37.95129,51.56246 9.49974,13.62405 23.67108,33.91762 31.49185,45.09683 7.82078,11.17921 14.21959,20.87311 14.21959,21.542 0,0.66888 0.69304,1.72913 1.5401,2.3561 0.84705,0.62697 2.11032,2.31766 2.80725,3.75709 0.69693,1.43943 1.4106,2.91158 1.58594,3.27144 0.17533,0.35985 -29.25869,0.65428 -65.40894,0.65428 -65.01697,0 -65.73962,-0.0191 -66.8291,-1.76361 -1.14684,-1.83638 -94.31873,-128.57513 -114.14309,-155.26521 -10.02748,-13.50026 -25.27434,-31.262 -27.61271,-32.16727 -0.46217,-0.17891 -3.44358,-2.27663 -6.62535,-4.6616 -7.21891,-5.41108 -21.16109,-12.25262 -29.77554,-14.61112 -15.05967,-4.12309 -33.33485,-5.95693 -61.93915,-6.21534 l -16.13907,-0.1458 -0.5284,105.8883 c -0.29063,58.23857 -0.58506,106.57532 -0.65429,107.41498 -0.11847,1.43676 -3.41412,1.52667 -55.958353,1.52667 H 2.617147 Z m 241.554123,-34.0475 c 42.71994,-2.64049 66.81414,-6.64156 79.88674,-13.26594 7.50355,-3.80234 14.95382,-11.80046 19.31224,-20.73238 6.39672,-13.10907 7.63887,-19.20593 7.64266,-37.51244 0.003,-14.15231 -0.21933,-16.5289 -2.25104,-24.06812 -2.20137,-8.1688 -5.864,-16.69601 -7.64378,-17.79598 -0.48894,-0.30218 -0.88898,-1.31139 -0.88898,-2.24269 0,-0.93131 -0.45305,-1.69328 -1.00679,-1.69328 -0.55373,0 -2.37468,-1.59807 -4.04655,-3.55127 -1.67186,-1.953202 -5.17562,-5.129136 -7.78613,-7.057625 -10.32202,-7.625333 -20.02165,-10.161434 -42.993,-11.241121 -8.87649,-0.417208 -26.58159,-1.349996 -39.34467,-2.072863 -15.81338,-0.895627 -40.33809,-1.325248 -76.98774,-1.348662 L 114.28209,78.5076 v 71.96433 71.96434 l 54.21001,0.008 c 38.60911,0.005 60.38855,-0.37436 75.67917,-1.31947 z"
         id="path222418" />
    </g>
    <path
       style="fill:#ffffff;fill-opacity:0.936902;stroke:#030000;stroke-width:2.73492;stroke-linecap:round;stroke-linejoin:round"
       d="m 164.50561,217.12361 c -0.22596,-0.66494 -2.81933,-13.37872 -5.76303,-28.25284 -11.56884,-58.45569 -15.7229,-75.80628 -19.15979,-80.02612 l -1.61085,-1.97781 -1.0328,2.61714 c -1.30833,3.31535 -2.50075,28.96348 -2.55518,54.96009 -0.0231,11.03564 -0.29926,27.42552 -0.61367,36.42196 l -0.57166,16.35717 h -6.40494 -6.40493 V 150.48595 83.748704 h 13.87111 13.8711 l 0.95162,4.143816 c 0.52339,2.279099 4.3081,19.45413 8.41048,38.16673 10.19361,46.49714 11.77288,51.90675 15.15361,51.90675 3.46224,0 6.87484,-12.36898 18.29244,-66.30106 l 5.81761,-27.480045 10.01514,-0.266378 c 5.50832,-0.146507 11.68603,-0.02394 13.72823,0.27237 l 3.7131,0.538746 -0.22357,66.028687 -0.22356,66.02869 -5.74959,0.25479 -5.74958,0.25478 -0.57519,-15.87942 c -0.31635,-8.73368 -0.60048,-25.72894 -0.63139,-37.76723 -0.0629,-24.48398 -1.13086,-51.60293 -2.12622,-53.99068 -0.93109,-2.23358 -3.1294,-1.49432 -4.98025,1.67478 -2.28958,3.9203 -4.08711,11.63428 -14.2142,60.99941 -4.98984,24.32325 -9.19414,44.3458 -9.34289,44.49456 -0.14876,0.14875 -3.69269,0.54815 -7.87539,0.88753 -6.11022,0.49577 -7.68567,0.37944 -8.01576,-0.59192 z"
       id="path906" />
    <path
       style="fill:#ffffff;fill-opacity:0.936902;stroke:#030000;stroke-width:2.73492;stroke-linecap:round;stroke-linejoin:round"
       d="m 272.59902,207.63752 c -6.72948,-0.98921 -14.37599,-3.42776 -18.70686,-5.96582 -6.12743,-3.59091 -13.80874,-11.83133 -16.67376,-17.8874 -3.85233,-8.14306 -3.83058,-8.18095 5.08579,-8.86114 4.19834,-0.32028 8.19501,-0.64995 8.88149,-0.7326 0.6982,-0.0841 2.54888,2.15599 4.20029,5.08401 4.03691,7.15763 8.34975,11.36557 15.01889,14.65354 5.05364,2.49151 6.59572,2.81184 14.90528,3.09626 11.35625,0.3887 17.85733,-0.87102 23.25436,-4.50602 10.88153,-7.32889 12.01243,-24.30958 2.05956,-30.92481 -1.64857,-1.09573 -12.83687,-5.16987 -24.8629,-9.05364 -26.66618,-8.61176 -31.3999,-10.69151 -37.52926,-16.48841 -12.01589,-11.36412 -12.47277,-24.51937 -1.24162,-35.75052 9.05909,-9.05909 22.2359,-12.742798 42.62298,-11.915679 13.7185,0.55657 21.22912,1.998235 27.82626,5.341259 8.17216,4.14115 10.86556,7.32826 14.07405,16.65389 l 1.56133,4.53808 -5.80101,0.54796 c -3.19055,0.30138 -7.76454,0.55076 -10.16441,0.55417 -4.29509,0.006 -4.39662,-0.0564 -6.48441,-3.99193 -2.54536,-4.79804 -7.95528,-9.43007 -13.21851,-11.31782 -4.4752,-1.605106 -22.07268,-1.898555 -26.8967,-0.44852 -12.71843,3.823 -17.18053,17.11904 -8.90806,26.54398 2.433,2.77195 6.85124,4.52133 28.90152,11.44341 11.75535,3.69027 24.22242,7.89277 27.70461,9.33889 7.40385,3.07475 12.80087,7.89773 15.93295,14.23826 1.89992,3.84619 2.1531,5.49652 2.14133,13.95812 -0.0167,12.00398 -1.15859,15.98121 -5.901,20.55338 -4.1831,4.03294 -13.61071,8.98479 -20.68548,10.86505 -5.15441,1.36989 -28.84456,1.64708 -37.09671,0.43405 z"
       id="path945" />
    <path
       style="fill:#0000ff;fill-opacity:0.936902;stroke:#fcffff;stroke-width:1.36746;stroke-linecap:round;stroke-linejoin:round"
       d="M 4.3619116,329.99012 V 153.97548 H 58.449616 112.53732 v 34.42795 c 0,32.08155 0.0515,34.47947 0.75611,35.18405 0.71228,0.71228 3.77807,0.73877 52.88818,0.45715 55.08437,-0.31589 68.31959,-0.62307 87.68165,-2.035 36.17535,-2.638 56.45985,-6.15001 69.18946,-11.97929 9.17194,-4.20011 16.64061,-12.02971 22.1918,-23.26424 4.63942,-9.38928 6.54985,-16.6577 7.04226,-26.79299 l 0.29138,-5.99763 h 56.66698 56.66696 l -0.28532,3.59858 c -1.3535,17.06882 -6.59586,34.23553 -14.81898,48.52627 -16.26446,28.26554 -44.67197,48.91259 -86.15199,62.61666 -13.27033,4.38422 -26.86477,7.74652 -44.0553,10.89615 -15.6073,2.85955 -18.32003,3.70202 -18.32003,5.68949 0,1.24699 2.96326,3.407 10.72509,7.81783 24.74188,14.06014 45.46618,29.77563 66.43022,50.37483 21.35537,20.98374 38.71249,41.71037 59.07471,70.54279 30.86517,43.70432 58.31124,83.55928 58.31124,84.67482 0,0.32923 0.53978,1.1647 1.19952,1.8566 0.65974,0.69191 1.7387,2.0455 2.39775,3.00799 l 1.19817,1.74997 -2.07056,0.28893 c -2.68218,0.37428 -118.4432,0.45406 -122.81331,0.0846 l -3.32083,-0.28071 -6.87478,-9.42454 C 346.65694,468.74151 267.91857,361.72045 259.15648,350.04341 c -7.72782,-10.2987 -14.83747,-18.96492 -22.43632,-27.34848 -5.46937,-6.03419 -16.9244,-13.85073 -28.26074,-19.28423 -9.82597,-4.70959 -17.78628,-7.06167 -30.34314,-8.96568 -12.57005,-1.90601 -32.64523,-3.05653 -53.48401,-3.06519 -9.89552,-0.004 -9.93416,-4.4e-4 -10.32432,0.9773 -0.22269,0.55805 -0.60792,46.70371 -0.893,106.9695 -0.27575,58.29343 -0.60233,106.08908 -0.72573,106.21254 -0.12341,0.12347 -24.547535,0.27873 -54.275843,0.34504 l -54.0514654,0.12055 z"
       id="path2511" />
    <path
       style="fill:#000080;fill-opacity:0.936902;stroke:#fcffff;stroke-width:1.36746;stroke-linecap:round;stroke-linejoin:round"
       d="M 4.3619116,78.732505 V 4.3619116 l 113.7368484,0.00716 c 132.86777,0.00837 162.90038,0.3950739 187.01696,2.4080738 33.94,2.8329567 68.33372,10.2479516 90.29157,19.4660986 33.6932,14.144777 53.44982,34.334996 63.70781,65.106049 5.07962,15.237477 6.18397,23.035407 6.59888,46.596167 l 0.2669,15.15764 h -56.7692 -56.76922 l -0.009,-8.39668 c -0.005,-4.61818 -0.2041,-9.77068 -0.443,-11.45002 -1.22314,-8.59808 -5.68732,-21.43289 -8.98215,-25.82426 -0.57671,-0.76865 -1.17113,-2.01034 -1.32093,-2.75932 -0.18399,-0.91995 -0.78322,-1.69133 -1.84692,-2.37752 -0.86602,-0.55866 -3.14486,-2.616827 -5.0641,-4.573699 -9.28035,-9.462321 -18.71775,-13.945703 -33.46973,-15.900302 -6.66565,-0.883186 -7.92276,-0.968671 -36.10276,-2.455049 -34.7293,-1.831824 -45.27639,-2.084287 -101.42462,-2.427788 -46.76732,-0.286111 -49.78091,-0.259316 -50.48912,0.448897 -0.70175,0.701745 -0.75317,3.312301 -0.75317,38.234461 V 153.1031 H 58.449616 4.3619116 Z"
       id="path2550" />
    <path
       style="fill:#aa4400;fill-opacity:0.936902;stroke:#fcffff;stroke-width:1.36746;stroke-linecap:round;stroke-linejoin:round"
       d="m 160.99707,191.81506 c -9.93345,-49.60843 -14.60563,-70.57245 -17.48908,-78.47327 -1.4325,-3.92515 -3.09532,-6.63202 -4.73333,-7.70529 -0.98932,-0.64822 -1.09892,-0.6293 -1.86987,0.32279 -2.74344,3.38801 -3.551,16.19487 -4.32045,68.51718 -0.2452,16.6734 -0.56668,32.71979 -0.71439,35.65862 l -0.26858,5.34335 h -4.73392 -4.73392 V 150.48595 85.493468 h 12.43144 c 6.8373,0 12.43145,0.08428 12.43145,0.187293 0,0.103012 2.75858,12.714389 6.13017,28.025279 12.51226,56.82005 13.89366,62.1164 16.91368,64.84758 1.20752,1.09202 3.70968,1.11415 4.91809,0.0435 3.44883,-3.05571 7.36884,-18.23133 18.92299,-73.25695 2.06537,-9.836109 3.93785,-18.325479 4.16107,-18.865266 0.40417,-0.977356 0.44724,-0.981426 10.38673,-0.981426 5.48947,0 10.89155,0.124823 12.0046,0.277385 l 2.02374,0.277384 v 52.867073 c 0,29.07689 -0.12968,58.19868 -0.28817,64.7151 l -0.28818,11.84803 h -4.01197 -4.01196 l -0.26057,-4.90716 c -0.14331,-2.69893 -0.46453,-18.64717 -0.71383,-35.44053 -0.72209,-48.64391 -1.45101,-64.80825 -3.0193,-66.95534 -1.1675,-1.59839 -3.46168,-1.68947 -5.22307,-0.20736 -3.38402,2.84747 -5.08006,9.10581 -13.5912,50.15125 -9.72045,46.87738 -11.86441,57.13745 -11.96214,57.24567 -0.19985,0.2213 -8.43732,0.9711 -10.74766,0.97829 l -2.4294,0.008 z"
       id="path2700" />
    <path
       style="fill:#aa4400;fill-opacity:0.936902;stroke:#fcffff;stroke-width:1.36746;stroke-linecap:round;stroke-linejoin:round"
       d="m 274.98014,206.29344 c -6.13044,-0.59479 -13.68759,-2.77037 -19.05371,-5.48524 -4.30555,-2.17831 -9.58593,-6.89784 -13.84403,-12.37362 -1.80319,-2.31885 -5.66679,-9.62985 -5.66679,-10.72314 0,-0.58651 1.32666,-0.79911 9.36488,-1.50077 6.05923,-0.5289 5.17351,-1.04425 9.01439,5.24485 5.32999,8.7274 14.42664,15.26557 23.11465,16.61356 4.67841,0.72588 20.3267,0.27501 23.71666,-0.68334 6.36679,-1.79992 11.81018,-5.91172 14.46466,-10.92626 2.24563,-4.24217 2.89036,-7.13083 2.66352,-11.93375 -0.27443,-5.81046 -1.41062,-8.62169 -4.87666,-12.06618 -2.44438,-2.42918 -3.09305,-2.80264 -8.16582,-4.70122 -3.03078,-1.13434 -13.04137,-4.58632 -22.24575,-7.67108 -25.46916,-8.53573 -28.50544,-9.91166 -34.20578,-15.50074 -6.04607,-5.92806 -8.59171,-10.95647 -8.62296,-17.03299 -0.0221,-4.2963 1.04383,-7.48454 3.90573,-11.68224 3.97878,-5.8359 10.29598,-10.421022 17.77407,-12.900711 7.16262,-2.37508 11.08595,-2.876194 22.51563,-2.875844 17.5395,5.36e-4 26.03949,1.621609 34.49869,6.579409 3.94087,2.309682 6.1889,4.557016 7.91633,7.913846 1.89917,3.69057 3.59729,8.3187 3.19854,8.71744 -0.43642,0.43643 -6.256,0.90953 -11.63209,0.94563 -5.19324,0.0349 -5.0338,0.11657 -7.17568,-3.67659 -1.91466,-3.39077 -7.0875,-8.19871 -10.78089,-10.02038 -4.35282,-2.146926 -7.33281,-2.567559 -18.42395,-2.600587 -8.76927,-0.02611 -9.86383,0.05559 -12.7019,0.94819 -3.55991,1.119617 -7.83723,3.809017 -9.77236,6.144447 -5.63581,6.80165 -5.2451,17.02463 0.88495,23.15469 2.71812,2.71811 6.00104,4.08827 22.61286,9.43768 21.29912,6.85884 32.38612,10.65623 35.65136,12.21089 6.39706,3.04579 10.79058,7.27086 13.79631,13.26738 l 1.43053,2.85397 0.15177,8.13933 c 0.0835,4.47663 -0.0503,9.43743 -0.29733,11.02401 -1.13004,7.2585 -5.04221,11.53206 -15.27942,16.69091 -5.39205,2.71723 -9.73117,4.023 -14.92338,4.49093 -5.35308,0.48242 -23.95178,0.46801 -29.00703,-0.0225 z"
       id="path2776" />
    <path
       style="fill:#aa4400;fill-opacity:0.936902;stroke:#fcffff;stroke-width:1.36746;stroke-linecap:round;stroke-linejoin:round"
       d="m 497.80188,484.75093 c -2.86273,-4.03686 -14.82638,-20.99288 -26.58589,-37.68007 -39.83788,-56.53153 -46.4824,-65.45086 -61.78014,-82.93114 -27.09957,-30.96589 -53.65879,-53.94216 -84.35461,-72.97482 -2.69356,-1.67011 -4.75456,-3.16485 -4.58001,-3.32165 0.17456,-0.1568 4.63566,-1.20815 9.91358,-2.33635 38.37843,-8.2037 64.27092,-18.30921 87.89252,-34.30334 7.14991,-4.84119 11.6043,-8.49754 18.26215,-14.99036 17.04624,-16.62368 27.76097,-35.26475 33.42281,-58.14773 2.57608,-10.41151 2.951,-14.04012 3.16287,-30.61133 0.2682,-20.97761 -0.54677,-33.89946 -2.7659,-43.85509 -9.62716,-43.190233 -34.5843,-70.581938 -79.34388,-87.083859 l -5.67049,-2.09059 59.67931,-0.01515 59.6793,-0.01515 -0.25422,47.871981 c -0.13982,26.329589 -0.4704,133.747108 -0.73462,238.705608 -0.26423,104.9585 -0.53833,190.89776 -0.60912,190.97619 -0.0708,0.0784 -2.47093,-3.16034 -5.33366,-7.19716 z"
       id="path2815" />
    <path
       style="fill:#ffffff;fill-opacity:0.936902;stroke:#fcffff;stroke-width:1.36746;stroke-linecap:round;stroke-linejoin:round"
       d="m 120.82495,443.46052 c 0,-32.46744 0.13053,-78.20208 0.29006,-101.63254 l 0.29005,-42.60084 5.48948,9.1e-4 c 10.96608,0.002 43.10287,2.08948 50.55507,3.28416 14.54954,2.33246 27.33867,6.94772 37.37454,13.48747 10.09758,6.57997 19.19729,15.56196 32.28037,31.86277 7.65532,9.53814 51.81347,69.12826 104.16128,140.56261 l 10.30856,14.06716 H 241.19966 120.82495 Z"
       id="path2854" />
    <path
       style="fill:#ffffff;fill-opacity:0.936902;stroke:#fcffff;stroke-width:1.36746;stroke-linecap:round;stroke-linejoin:round"
       d="m 171.02082,152.79648 c -8.44699,-38.71839 -14.67231,-68.512862 -14.37693,-68.808242 0.20269,-0.202694 8.53141,-0.292163 23.98539,-0.257656 l 8.11567,0.01812 -0.55849,3.162386 c -0.7184,4.067812 -4.51466,22.235552 -8.89272,42.557782 -1.89591,8.80049 -4.07858,18.94517 -4.85038,22.54375 -0.7718,3.59858 -1.54078,6.69932 -1.70885,6.89054 -0.16807,0.19122 -0.93923,-2.55679 -1.71369,-6.10668 z"
       id="path2930" />
    <path
       style="fill:#ffffff;fill-opacity:0.936902;stroke:#fcffff;stroke-width:1.36746;stroke-linecap:round;stroke-linejoin:round"
       d="m 141.76213,183.00794 c 0,-19.0583 0.15195,-34.74537 0.33767,-34.86015 0.18573,-0.11479 1.37687,4.73171 2.647,10.76999 3.06095,14.55201 11.84583,57.81069 11.84583,58.33148 0,0.23996 -3.07661,0.41013 -7.41525,0.41013 h -7.41525 z"
       id="path2969" />
    <path
       style="fill:#ffffff;fill-opacity:0.936902;stroke:#fcffff;stroke-width:1.36746;stroke-linecap:round;stroke-linejoin:round"
       d="m 188.44685,216.89606 c 0.0121,-0.75297 2.45374,-12.90285 10.49691,-52.2339 l 4.10323,-20.06479 0.26806,8.72382 c 0.14743,4.79811 0.29465,21.23706 0.32714,36.53101 l 0.0591,27.80719 h -7.63334 c -6.98373,0 -7.6323,-0.065 -7.62108,-0.76333 z"
       id="path3008" />
    <path
       style="fill:#ffffff;fill-opacity:0.936902;stroke:#fcffff;stroke-width:1.36746;stroke-linecap:round;stroke-linejoin:round"
       d="m 281.94876,189.72087 c -5.97884,-0.7801 -11.60047,-3.19016 -14.72163,-6.31131 -2.44558,-2.44558 -5.50935,-7.37838 -6.87711,-11.07244 -0.56891,-1.53649 -1.64641,-3.45028 -2.39445,-4.25286 l -1.36008,-1.45924 -5.61898,0.006 c -3.09044,0.004 -8.44894,0.19968 -11.90777,0.43583 -3.45884,0.23614 -6.33371,0.38044 -6.38862,0.32067 -0.0549,-0.0598 -0.22701,-9.43226 -0.38247,-20.82776 l -0.28264,-20.71908 1.17351,2.83524 c 2.55496,6.17292 6.90454,11.62492 12.84803,16.10443 6.8346,5.15113 13.86211,7.93813 39.02851,15.4781 20.33347,6.092 22.14208,6.85554 23.71338,10.01102 1.89579,3.80712 1.11715,10.63455 -1.57814,13.83771 -2.23406,2.65503 -8.38684,4.8961 -15.42504,5.61836 -4.89206,0.50201 -5.94385,0.50147 -9.8265,-0.005 z"
       id="path3047" />
    <path
       style="fill:#ffffff;fill-opacity:0.936902;stroke:#fcffff;stroke-width:1.36746;stroke-linecap:round;stroke-linejoin:round"
       d="m 344.42904,169.18459 c -2.00124,-10.11119 -4.74039,-15.43707 -10.88658,-21.16728 -6.28903,-5.8634 -15.03515,-9.46258 -43.25724,-17.80108 -20.53505,-6.06729 -23.95613,-7.65006 -25.09141,-11.60855 -1.11645,-3.89283 -0.16789,-6.53186 3.35382,-9.33079 l 2.54518,-2.02283 11.77716,0.17252 c 13.46972,0.19731 15.09707,0.49488 17.73928,3.2437 0.87174,0.90692 2.60604,3.51366 3.85399,5.79276 2.74651,5.01588 3.99072,6.40638 6.30219,7.04319 1.80491,0.49725 22.19963,0.17415 27.28272,-0.43223 l 2.39905,-0.28619 0.2181,-3.27143 0.2181,-3.27143 1.40382,3.92572 c 1.89599,5.30201 2.57299,8.17927 3.43821,14.6124 0.99421,7.39217 1.00107,23.65051 0.0128,30.27841 -0.75436,5.05911 -0.98201,5.77607 -1.30917,4.12311 z"
       id="path3086" />
    <path
       style="fill:#ffffff;fill-opacity:0.936902;stroke:#fcffff;stroke-width:1.36746;stroke-linecap:round;stroke-linejoin:round"
       d="m 232.06642,96.507295 -0.0127,-12.758591 0.98143,0.0028 c 2.24714,0.0065 18.16985,0.880901 20.2682,1.113087 l 2.27531,0.251767 -3.80198,1.906482 c -6.54464,3.281769 -13.56311,9.637437 -16.3741,14.82778 -0.51971,0.95962 -1.48009,3.02062 -2.13418,4.58 l -1.18924,2.83525 z"
       id="path3125" />
    <path
       style="fill:#ffffff;fill-opacity:0.936902;stroke:#fcffff;stroke-width:1.36746;stroke-linecap:round;stroke-linejoin:round"
       d="m 232.05557,204.29419 0.002,-13.02436 1.24759,1.88043 c 2.01408,3.03575 7.19529,8.51243 10.78557,11.40067 4.87487,3.92163 10.39605,6.5477 19.36887,9.21251 2.73487,0.81222 3.6874,1.23884 2.80147,1.25473 -0.73829,0.0132 -6.52873,0.40301 -12.86764,0.86615 -6.33891,0.46315 -13.73351,0.97532 -16.43244,1.13816 l -4.90715,0.29607 z"
       id="path3164" />
    <path
       style="fill:#ff6600;fill-opacity:0.936902;stroke:#fcffff;stroke-width:1.36746;stroke-linecap:round;stroke-linejoin:round"
       d="m 121.76384,420.37924 c 0.0407,-39.88423 0.1579,-83.29405 0.26051,-96.46627 l 0.18656,-23.94948 10.32085,0.2759 c 13.72646,0.36693 35.86852,1.86334 43.68947,2.95264 11.27507,1.57037 24.35213,5.7173 33.15053,10.51251 10.11639,5.51354 20.86213,15.10081 32.47943,28.97791 4.15732,4.966 29.34547,38.30373 44.94419,59.4858 3.09171,4.19834 7.51109,10.18507 9.82084,13.30383 8.83462,11.92903 12.56757,16.99784 33.68462,45.73887 11.96141,16.27988 22.05543,30.06898 22.43117,30.64243 l 0.68317,1.04264 H 237.55253 121.68988 Z"
       id="path3277" />
    <path
       style="fill:#ff6600;fill-opacity:0.936902;stroke:#fcffff;stroke-width:1.36746;stroke-linecap:round;stroke-linejoin:round"
       d="m 501.57957,488.37398 c -0.382,-0.5117 -11.16088,-15.74995 -23.95308,-33.86279 -46.05589,-65.21189 -52.31061,-73.65836 -66.86209,-90.29157 -25.81997,-29.51378 -49.59392,-50.53412 -79.01374,-69.86197 -5.47949,-3.59984 -8.88193,-6.09102 -8.50573,-6.22769 0.34485,-0.12527 5.92673,-1.42871 12.40417,-2.89654 35.92675,-8.14121 59.02652,-17.31069 81.78584,-32.46498 8.93621,-5.95017 12.90298,-9.19055 20.54716,-16.78462 17.14394,-17.03156 27.28924,-35.00068 33.09036,-58.60893 2.11004,-8.58698 2.60922,-13.53142 2.91285,-28.8518 0.43309,-21.85255 -0.68734,-37.25231 -3.53851,-48.635313 -3.15518,-12.596756 -7.77415,-24.073853 -13.78223,-34.245744 -5.41971,-9.175759 -15.30705,-20.488776 -23.96293,-27.41819 -9.3425,-7.479078 -23.85598,-15.725144 -36.42197,-20.693718 l -5.67048,-2.242103 56.65898,-0.01066 56.65899,-0.01067 -0.28394,42.201495 c -0.15617,23.210822 -0.49082,124.052763 -0.74367,224.093213 -0.57353,226.92461 -0.45259,207.97442 -1.31998,206.81258 z"
       id="path3501" />
    <path
       style="fill:#ff6600;fill-opacity:0.936902;stroke:#fcffff;stroke-width:1.36746;stroke-linecap:round;stroke-linejoin:round"
       d="m 276.29123,205.45179 c -7.55235,-0.6384 -16.24956,-3.27161 -21.87033,-6.62155 -3.34737,-1.99501 -10.05536,-8.6604 -12.43749,-12.35852 -2.34952,-3.64747 -4.84122,-8.50017 -4.37455,-8.51963 0.18338,-0.008 2.98328,-0.28653 6.222,-0.61974 6.95549,-0.71559 6.89231,-0.73794 9.3534,3.30851 5.23811,8.61231 12.35037,14.58156 20.74379,17.41003 5.83823,1.96741 24.38413,1.57389 30.27209,-0.64233 9.5535,-3.59593 15.52798,-11.89314 15.52798,-21.56488 0,-6.07539 -1.52172,-10.2386 -5.07128,-13.87428 -2.97186,-3.04396 -4.48611,-3.70696 -22.62686,-9.90684 -31.52357,-10.77368 -35.53473,-12.40639 -39.91149,-16.24566 -4.04582,-3.54899 -7.03026,-7.20504 -8.6773,-10.63004 -1.4992,-3.11756 -1.57319,-3.48684 -1.57319,-7.85144 0,-4.13751 0.11848,-4.82132 1.22629,-7.07771 4.72241,-9.61864 14.53915,-16.156221 27.70839,-18.452744 4.48259,-0.781699 22.25861,-0.878545 28.95259,-0.157738 11.93266,1.284907 21.79649,5.831168 25.67655,11.834382 2.04989,3.17156 4.19194,8.49527 3.63944,9.04521 -0.49338,0.49111 -12.29029,1.11358 -13.8214,0.7293 -0.6833,-0.1715 -1.52747,-0.99612 -2.20733,-2.15621 -2.66623,-4.54958 -7.28166,-8.96013 -11.79932,-11.27555 -4.17906,-2.141882 -7.11702,-2.537705 -18.89864,-2.546156 -9.97269,-0.0072 -10.71286,0.04871 -13.35598,1.008115 -6.07815,2.206251 -9.94443,5.446951 -12.21402,10.237731 -1.28529,2.71307 -1.38389,3.25143 -1.37415,7.5028 0.0131,5.72115 0.98424,8.46429 4.27317,12.07035 3.17848,3.48498 5.96756,4.66472 28.21258,11.93349 21.7535,7.10817 29.76386,9.98263 33.12292,11.88592 3.69536,2.09386 8.24869,6.70536 10.4943,10.62837 l 1.96097,3.42576 0.15477,7.29828 c 0.18328,8.64308 -0.38779,13.64063 -1.91629,16.76969 -2.71284,5.55363 -13.11246,12.13801 -22.99441,14.55861 -3.05092,0.74732 -5.43453,0.90614 -15.80606,1.05313 -6.71735,0.0952 -14.19236,0.006 -16.61114,-0.19866 z"
       id="path3540" />
    <path
       style="fill:#ff6600;fill-opacity:0.936902;stroke:#fcffff;stroke-width:1.36746;stroke-linecap:round;stroke-linejoin:round"
       d="m 166.62502,215.35408 c 0,-0.57413 -11.91007,-59.05415 -14.18826,-69.66623 -6.00953,-27.9931 -8.90431,-37.323 -12.52558,-40.3701 -1.66422,-1.40035 -2.68807,-1.34848 -3.7848,0.19173 -2.74245,3.85142 -3.55833,16.15392 -4.38571,66.13174 -0.23829,14.39431 -0.55845,29.94998 -0.71147,34.56815 l -0.2782,8.39668 h -3.87255 -3.87254 V 150.47883 86.351602 l 11.63815,0.116172 11.63815,0.116172 0.56061,2.617147 c 3.7663,17.582617 15.48348,69.775427 16.94073,75.460517 2.40305,9.37489 3.49449,12.29024 5.26661,14.06772 1.16471,1.16823 1.74926,1.41762 3.32277,1.41762 2.49039,0 3.59532,-0.83123 5.11523,-3.84813 3.08768,-6.12885 6.78575,-21.26474 17.49676,-71.61294 1.96493,-9.236348 3.75542,-17.136861 3.97886,-17.556695 0.36794,-0.691313 1.29996,-0.762881 9.87809,-0.758534 5.20949,0.0026 10.20788,0.126466 11.10752,0.275168 l 1.63572,0.270367 v 50.033784 c 0,27.51857 -0.12984,56.24879 -0.28854,63.84493 l -0.28854,13.81115 h -3.14789 -3.14788 l -0.27514,-7.96049 c -0.15133,-4.37826 -0.47344,-19.83579 -0.7158,-34.35005 -0.71386,-42.75101 -1.42381,-59.74829 -2.65573,-63.58245 -0.84417,-2.62736 -3.96292,-3.45036 -6.53648,-1.7249 -4.15368,2.78488 -5.38054,7.48386 -18.47481,70.75974 -3.97166,19.19241 -7.31633,35.31475 -7.4326,35.82742 -0.14561,0.64211 -0.65371,1.01087 -1.63307,1.18524 -2.26791,0.40377 -10.36361,0.86741 -10.36361,0.59352 z"
       id="path3579" />
    <path
       style="fill:#ff6600;fill-opacity:0.936902;stroke:#fcffff;stroke-width:0.68373;stroke-linecap:round;stroke-linejoin:round"
       d="m 383.61024,14.083621 c -0.40436,-0.404355 -12.5341,-3.81093 -20.263,-5.6907585 l -4.68905,-1.1404749 3.70762,-0.1341166 c 2.03919,-0.073764 34.89257,-0.1971879 73.0075,-0.2742749 l 69.29987,-0.1401583 v 3.3742032 3.374203 l -59.91655,0.128261 c -42.31486,0.09058 -59.93944,0.196921 -59.99446,0.361984 -0.0748,0.224249 -0.96032,0.332746 -1.15193,0.141132 z"
       id="path3696" />
  </g>
</svg>
